<svg width="59" height="43" viewBox="0 0 59 43" fill="none" xmlns="http://www.w3.org/2000/svg">
<g filter="url(#filter0_d_3523_19)">
<path d="M43.5 5H15.5C9.7005 5 5 8.76414 5 13.4084V24.328C5 28.9722 9.7005 32.7364 15.5 32.7364H21.8717C22.4107 32.7364 24.6395 32.6791 25 33L28.0842 37.4955C28.842 38.1682 30.1597 38.1682 30.9175 37.4955L34 33C34.3623 32.6791 36.591 32.7364 37.13 32.7364H43.5C49.2995 32.7364 54 28.9722 54 24.328V13.4084C54 8.76414 49.2995 5 43.5 5Z" fill="#1C3D74"/>
<path d="M25.6184 32.5757L25.5668 32.5005L25.4987 32.4398C25.3287 32.2885 25.1259 32.2163 25.001 32.1786C24.8563 32.1348 24.6981 32.1043 24.545 32.0815C24.2372 32.0359 23.8767 32.0117 23.5317 31.9984C22.9832 31.9773 22.4129 31.9822 22.0781 31.985C21.9925 31.9858 21.9222 31.9864 21.8717 31.9864H15.5C9.95065 31.9864 5.75 28.4111 5.75 24.328V13.4084C5.75 9.32527 9.95065 5.75 15.5 5.75H43.5C49.0494 5.75 53.25 9.32527 53.25 13.4084V24.328C53.25 28.4111 49.0494 31.9864 43.5 31.9864H37.13C37.0795 31.9864 37.0093 31.9858 36.9236 31.985C36.5889 31.9822 36.0185 31.9773 35.4699 31.9984C35.1248 32.0117 34.7641 32.0359 34.4562 32.0815C34.3029 32.1042 34.1447 32.1348 33.9999 32.1785C33.8748 32.2162 33.6725 32.2882 33.5027 32.4386L33.4336 32.4998L33.3814 32.5759L30.3582 36.985C30.1404 37.1502 29.8351 37.25 29.5009 37.25C29.1666 37.25 28.8613 37.1501 28.6435 36.9849L25.6184 32.5757Z" stroke="white" stroke-width="1.5"/>
</g>
<defs>
<filter id="filter0_d_3523_19" x="0" y="0" width="59" height="43" filterUnits="userSpaceOnUse" color-interpolation-filters="sRGB">
<feFlood flood-opacity="0" result="BackgroundImageFix"/>
<feColorMatrix in="SourceAlpha" type="matrix" values="0 0 0 0 0 0 0 0 0 0 0 0 0 0 0 0 0 0 127 0" result="hardAlpha"/>
<feOffset/>
<feGaussianBlur stdDeviation="2.5"/>
<feComposite in2="hardAlpha" operator="out"/>
<feColorMatrix type="matrix" values="0 0 0 0 0 0 0 0 0 0 0 0 0 0 0 0 0 0 0.4 0"/>
<feBlend mode="normal" in2="BackgroundImageFix" result="effect1_dropShadow_3523_19"/>
<feBlend mode="normal" in="SourceGraphic" in2="effect1_dropShadow_3523_19" result="shape"/>
</filter>
</defs>
</svg>
