<svg width="186" height="60" viewBox="0 0 186 60" fill="none" xmlns="http://www.w3.org/2000/svg">
<mask id="mask0_100_280" style="mask-type:luminance" maskUnits="userSpaceOnUse" x="0" y="0" width="186" height="60">
<path d="M186 0H0V59.7042H186V0Z" fill="white"/>
</mask>
<g mask="url(#mask0_100_280)">
<mask id="mask1_100_280" style="mask-type:luminance" maskUnits="userSpaceOnUse" x="0" y="0" width="189" height="64">
<path d="M188.533 0.86084H0V63.6884H188.533V0.86084Z" fill="white"/>
</mask>
<g mask="url(#mask1_100_280)">
<mask id="mask2_100_280" style="mask-type:luminance" maskUnits="userSpaceOnUse" x="-3" y="-2" width="614" height="794">
<path d="M610.006 -1.81201H-2.65283V791.041H610.006V-1.81201Z" fill="white"/>
</mask>
<g mask="url(#mask2_100_280)">
<mask id="mask3_100_280" style="mask-type:luminance" maskUnits="userSpaceOnUse" x="-3" y="-2" width="614" height="794">
<path d="M610.006 -1.8418H-2.65283V791.011H610.006V-1.8418Z" fill="white"/>
</mask>
<g mask="url(#mask3_100_280)">
<path d="M185.95 0.811035H0.0500488V39.0722H185.95V0.811035Z" fill="#000029"/>
<path d="M185.95 0.050293H0.0500488V39.0722H185.95V0.050293Z" stroke="#231F20" stroke-width="0.1"/>
<path d="M181.875 45.6799L92.6594 59.6549L5.01514 45.6799V1.80273H181.875V45.6799Z" fill="#000029"/>
<path d="M181.875 45.6799L92.6594 59.6549L5.01514 45.6799V1.80273H181.875V45.6799Z" stroke="#231F20" stroke-width="0.1"/>
<path d="M184.829 0.811035H1.16138V37.3303H184.829V0.811035Z" fill="white"/>
<path d="M184.829 0.050293H1.16138V37.3304H184.829V0.050293Z" stroke="#231F20" stroke-width="0.1"/>
</g>
</g>
</g>
</g>
<mask id="mask4_100_280" style="mask-type:luminance" maskUnits="userSpaceOnUse" x="4" y="0" width="3" height="38">
<path d="M6.07635 0.0498047H4.31445V37.2698H6.07635V0.0498047Z" fill="white"/>
</mask>
<g mask="url(#mask4_100_280)">
<mask id="mask5_100_280" style="mask-type:luminance" maskUnits="userSpaceOnUse" x="-1" y="0" width="187" height="60">
<path d="M186 0H-0.000244141V59.7042H186V0Z" fill="white"/>
</mask>
<g mask="url(#mask5_100_280)">
<mask id="mask6_100_280" style="mask-type:luminance" maskUnits="userSpaceOnUse" x="-1" y="0" width="190" height="64">
<path d="M188.532 0.86084H-0.000244141V63.6884H188.532V0.86084Z" fill="white"/>
</mask>
<g mask="url(#mask6_100_280)">
<mask id="mask7_100_280" style="mask-type:luminance" maskUnits="userSpaceOnUse" x="-3" y="-2" width="614" height="794">
<path d="M610.006 -1.81201H-2.65283V791.041H610.006V-1.81201Z" fill="white"/>
</mask>
<g mask="url(#mask7_100_280)">
<mask id="mask8_100_280" style="mask-type:luminance" maskUnits="userSpaceOnUse" x="-3" y="-2" width="614" height="794">
<path d="M610.006 -1.8418H-2.65283V791.011H610.006V-1.8418Z" fill="white"/>
</mask>
<g mask="url(#mask8_100_280)">
<path d="M506.785 -34.5068H-105.874V758.346H506.785V-34.5068Z" fill="url(#paint0_linear_100_280)"/>
</g>
</g>
</g>
</g>
</g>
<mask id="mask9_100_280" style="mask-type:luminance" maskUnits="userSpaceOnUse" x="180" y="0" width="3" height="38">
<path d="M182.567 0.0498047H180.805V37.2698H182.567V0.0498047Z" fill="white"/>
</mask>
<g mask="url(#mask9_100_280)">
<mask id="mask10_100_280" style="mask-type:luminance" maskUnits="userSpaceOnUse" x="0" y="0" width="187" height="60">
<path d="M186 0H0.000244141V59.7042H186V0Z" fill="white"/>
</mask>
<g mask="url(#mask10_100_280)">
<mask id="mask11_100_280" style="mask-type:luminance" maskUnits="userSpaceOnUse" x="0" y="0" width="189" height="64">
<path d="M188.533 0.86084H0.000244141V63.6884H188.533V0.86084Z" fill="white"/>
</mask>
<g mask="url(#mask11_100_280)">
<mask id="mask12_100_280" style="mask-type:luminance" maskUnits="userSpaceOnUse" x="-3" y="-2" width="614" height="794">
<path d="M610.006 -1.81201H-2.65259V791.041H610.006V-1.81201Z" fill="white"/>
</mask>
<g mask="url(#mask12_100_280)">
<mask id="mask13_100_280" style="mask-type:luminance" maskUnits="userSpaceOnUse" x="-3" y="-2" width="614" height="794">
<path d="M610.006 -1.8418H-2.65259V791.011H610.006V-1.8418Z" fill="white"/>
</mask>
<g mask="url(#mask13_100_280)">
<path d="M506.785 -34.5068H-105.874V758.346H506.785V-34.5068Z" fill="url(#paint1_linear_100_280)"/>
</g>
</g>
</g>
</g>
</g>
<mask id="mask14_100_280" style="mask-type:luminance" maskUnits="userSpaceOnUse" x="0" y="0" width="186" height="60">
<path d="M186 0H0V59.7042H186V0Z" fill="white"/>
</mask>
<g mask="url(#mask14_100_280)">
<mask id="mask15_100_280" style="mask-type:luminance" maskUnits="userSpaceOnUse" x="0" y="0" width="189" height="64">
<path d="M188.533 0.86084H0V63.6884H188.533V0.86084Z" fill="white"/>
</mask>
<g mask="url(#mask15_100_280)">
<mask id="mask16_100_280" style="mask-type:luminance" maskUnits="userSpaceOnUse" x="-3" y="-2" width="614" height="794">
<path d="M610.006 -1.81201H-2.65283V791.041H610.006V-1.81201Z" fill="white"/>
</mask>
<g mask="url(#mask16_100_280)">
<mask id="mask17_100_280" style="mask-type:luminance" maskUnits="userSpaceOnUse" x="-3" y="-2" width="614" height="794">
<path d="M610.006 -1.8418H-2.65283V791.011H610.006V-1.8418Z" fill="white"/>
</mask>
<g mask="url(#mask17_100_280)">
<path d="M180.804 43.9275L92.6595 57.9125L6.06641 43.9275V0.050293H180.804V43.9275Z" fill="white"/>
<path d="M180.804 43.9275L92.6595 57.9125L6.06641 43.9275V0.050293H180.804V43.9275Z" stroke="#231F20" stroke-width="0.1"/>
<path d="M53.2972 19.4309V18.9904H38.7416V22.7244H49.1328C47.8414 27.3294 41.8149 30.4027 36.1688 30.4027C32.8753 30.4027 29.1713 29.1013 26.4884 27.009C23.9557 24.9969 22.5642 22.3741 22.5642 19.6211C22.5642 13.5546 28.7909 8.62928 36.4391 8.62928C41.2042 8.62928 45.1385 10.3211 48.1617 13.6447L48.422 13.935L51.9958 11.3222L51.6254 10.9418C47.6712 6.92745 42.5757 4.88525 36.4892 4.88525C26.1781 4.88525 17.7891 11.4723 17.7891 19.5811C17.7891 27.6898 26.078 34.1267 36.2589 34.1267C41.3244 34.1267 46.2797 32.3748 49.5132 29.4317C52.7767 26.4685 53.3873 23.285 53.2872 19.4209" fill="#1C3D74"/>
<path d="M117.696 8.61927C122.432 8.61927 126.426 11.2121 128.388 12.7537L129.119 13.3243V8.35899L128.888 8.22885C126.366 6.7873 122.472 4.88525 117.937 4.88525C107.415 4.88525 98.8562 11.5424 98.8562 19.7312C98.8562 27.92 107.415 34.1267 117.937 34.1267C121.17 34.1267 124.854 33.0055 128.888 30.7831L129.119 30.653V25.6976L128.398 26.2482C126.366 27.7899 122.291 30.3927 117.797 30.3927C110.128 30.3927 103.651 25.4073 103.651 19.501C103.651 13.5946 110.088 8.60926 117.706 8.60926" fill="#1C3D74"/>
<path d="M120.63 22.8656H119.639V16.3086H120.93C122.622 16.3086 124.204 16.639 124.204 18.1205C124.204 19.1316 123.333 19.8424 121.961 19.9325L124.804 22.8757H123.583L120.88 19.9926H120.63V22.8757M120.63 19.3519H120.94C122.061 19.3519 123.203 19.1917 123.203 18.1806C123.203 17.0994 122.121 16.9993 120.93 16.9993H120.63V19.3519Z" fill="#1C3D74"/>
<path d="M129.139 16.3086H133.774V16.9893H130.13V18.9414H133.664V19.6121H130.13V22.1949H133.774V22.8656H129.139V16.3086Z" fill="#1C3D74"/>
<path d="M139.069 21.0034L137.988 22.8654H136.897L141.021 15.998L145.036 22.8654H143.935L142.883 21.0034H139.069ZM141.001 17.6999L139.47 20.3227H142.493L141.001 17.6999Z" fill="#1C3D74"/>
<path d="M149.521 22.1949H151.983V22.8656H148.53V16.3086H149.521V22.1949Z" fill="#1C3D74"/>
<path d="M157.469 22.8656H156.468V16.9893H154.316V16.3086H159.652V16.9893H157.469V22.8656Z" fill="#1C3D74"/>
<path d="M162.234 16.3086H163.386L165.658 19.2317L167.94 16.3086H169.092L166.159 20.0526V22.8656H165.168V20.0526L162.234 16.3086Z" fill="#1C3D74"/>
<path d="M90.4172 5.30615H87.0736L76.1719 25.7882L64.8597 5.30615H61.5362L56.2605 33.4364H61.0657L64.3392 14.426L75.1508 33.4364H77.183L87.5942 14.476L90.5173 33.4364H95.3225L90.4172 5.30615Z" fill="#1C3D74"/>
<path d="M141.963 25.688H130.1V30.6733H141.963V25.688Z" fill="#0067AB"/>
<path d="M154.756 25.688H142.894V30.6733H154.756V25.688Z" fill="#1C3D74"/>
<path d="M167.56 25.688H155.697V30.6733H167.56V25.688Z" fill="#0067AB"/>
<path d="M41.2945 44.8686C41.2945 44.8686 41.3346 44.8486 41.3546 44.8286L42.4057 38.4317L41.5448 38.4117C41.5648 38.2815 41.6048 38.1414 41.6249 38.0112H46.0797C46.0196 38.5618 45.9595 39.1124 45.8895 39.663C45.7693 39.673 45.6292 39.683 45.509 39.683V38.692C45.5191 38.5618 45.469 38.4917 45.2588 38.4717C44.9284 38.4417 44.0375 38.4317 43.0664 38.4317C43.0064 38.4317 42.9863 38.4417 42.9763 38.4717L42.4858 41.3648C43.1865 41.3648 43.8072 41.3648 44.4779 41.3448C44.7182 41.3448 44.7783 41.2747 44.8183 41.1246L44.9484 40.564C45.0986 40.554 45.2287 40.554 45.3689 40.564C45.3088 40.8943 45.2488 41.2447 45.1887 41.5951C45.1286 41.9254 45.0786 42.2758 45.0085 42.6262H44.5881L44.6581 42.0356C44.6782 41.8453 44.6181 41.7953 44.3878 41.7953C43.7972 41.7853 43.1665 41.7753 42.4257 41.7753L41.9352 44.6984C41.9052 44.8786 41.9152 44.9086 42.5158 44.9086C43.5369 44.9086 44.3078 44.8686 44.528 44.8185C44.6381 44.7985 44.7082 44.7184 44.7783 44.5983L45.2688 43.5272C45.3889 43.5472 45.5291 43.5972 45.6292 43.6373C45.449 44.1979 45.2588 44.7485 45.0586 45.3191C44.498 45.3191 43.1165 45.3091 41.6349 45.3091C41.1944 45.3091 40.784 45.3191 40.4136 45.3191C40.4336 45.1889 40.4536 45.0488 40.4937 44.9187L41.3145 44.8886L41.2945 44.8686Z" fill="#BE1E2D" stroke="#BE1E2D" stroke-width="0.12"/>
<path d="M48.8826 42.3456C49.5533 41.5548 50.5944 40.5337 50.8247 40.5337C50.9448 40.5337 51.2051 40.784 51.2451 40.9541C50.6845 41.2545 49.9838 41.715 49.0227 42.7261L49.0027 42.7861C49.3531 43.6871 49.5233 44.1476 49.7936 44.8183C49.8236 44.8884 49.8837 44.9084 49.9537 44.9084C50.0639 44.9084 50.4142 44.8684 50.7446 44.7482C50.7646 44.8684 50.8047 44.9985 50.8147 45.1186C50.4743 45.2788 49.8236 45.3589 49.4832 45.3589C49.293 44.8984 48.9827 44.0275 48.6423 43.1165H48.6123C47.9015 43.8573 47.3109 44.7682 47.0706 45.4089C46.8904 45.429 46.5901 45.429 46.3499 45.429C46.46 44.9685 47.5612 43.617 48.4721 42.7261V42.656C48.3019 42.1755 48.1017 41.6249 47.8915 41.0643L47.0206 41.2745C46.9905 41.1644 46.9605 41.0342 46.9305 40.9241C47.5111 40.7439 48.0016 40.5437 48.0517 40.5437C48.1318 40.5437 48.2519 40.6138 48.332 40.6738C48.5122 41.2445 48.6824 41.775 48.8626 42.3456H48.9226H48.8826Z" fill="#BE1E2D" stroke="#BE1E2D" stroke-width="0.12"/>
<path d="M52.8268 42.236C53.6377 41.1348 54.3685 40.5242 55.1493 40.5142C55.3896 40.5442 55.6999 40.7744 55.8301 41.0748C55.8901 41.1949 55.9101 41.3451 55.9101 41.4752C55.9101 42.3061 55.6899 43.3973 55.1693 44.2482C54.809 44.8188 54.1883 45.3894 53.3474 45.3894C52.997 45.3894 52.6066 45.2593 52.2662 44.9289C52.086 45.8299 51.8458 46.9611 51.6556 47.8721C51.4854 47.8821 51.3052 47.8821 51.125 47.8821C51.5455 45.8199 52.1061 43.0869 52.4965 41.0547L51.5655 41.1348V40.7744C52.4264 40.6443 52.7568 40.5142 52.8168 40.5142C52.8769 40.5142 53.017 40.6243 53.0571 40.7044C52.967 41.0848 52.8468 41.6554 52.7167 42.196L52.8168 42.216L52.8268 42.236ZM54.9291 41.0147C54.1683 41.0147 52.8368 42.5263 52.6066 43.2871C52.5665 43.4573 52.4264 44.1781 52.3663 44.4184C52.6166 44.7687 53.0671 44.979 53.3974 44.979C54.1282 44.979 54.5987 44.4184 54.849 43.8978C55.2094 43.167 55.3495 42.3061 55.3495 41.5953C55.3495 41.295 55.2194 41.0147 54.9191 41.0147H54.9291Z" fill="#BE1E2D" stroke="#BE1E2D" stroke-width="0.12"/>
<path d="M57.6119 41.4246C58.1325 40.804 58.613 40.5337 59.1836 40.5337C59.8944 40.5337 60.2848 41.1143 60.2948 41.6649C60.2347 41.9953 60.0245 42.4558 59.7042 42.6259C59.0635 42.9563 58.2926 43.0464 57.3416 43.0464C57.2415 43.3567 57.1614 43.8072 57.1614 44.0575C57.1614 44.6281 57.4417 44.9484 57.9623 44.9484C58.4228 44.9484 59.1335 44.6481 59.7242 44.2977C59.7842 44.3978 59.8343 44.508 59.8844 44.6281C59.2937 45.0185 58.4828 45.4189 57.8121 45.4189C57.2715 45.4189 56.6008 45.0285 56.6008 44.1976C56.6008 43.5569 56.8911 42.3156 57.6219 41.4347L57.6119 41.4246ZM58.0524 41.5348C57.8622 41.785 57.6319 42.1254 57.4618 42.666C58.1225 42.676 58.7832 42.5759 59.2136 42.3657C59.4939 42.2355 59.7142 42.0353 59.7142 41.715C59.7142 41.3346 59.514 40.9842 59.0435 40.9842C58.633 40.9842 58.3027 41.2244 58.0524 41.5348Z" fill="#BE1E2D" stroke="#BE1E2D" stroke-width="0.12"/>
<path d="M61.1755 41.1644C61.1555 41.0442 61.1555 40.9141 61.1455 40.804C61.7662 40.7039 62.3568 40.5337 62.4069 40.5337C62.477 40.5337 62.5971 40.6538 62.6271 40.7339C62.547 41.0743 62.4469 41.4847 62.2767 42.1755L62.3468 42.2055C62.9875 41.2545 63.7383 40.5337 64.1387 40.5337C64.349 40.5337 64.5292 40.6138 64.6393 40.6839C64.6393 40.8841 64.419 41.2545 64.3289 41.2945C64.2489 41.2645 64.0587 41.2044 63.9085 41.2044C63.468 41.2044 62.3068 42.5058 62.0365 43.5169C61.9564 43.8473 61.7261 44.8684 61.616 45.2988H61.0955C61.3157 44.3778 61.7662 42.3957 62.0565 41.0543L61.1555 41.1644H61.1755Z" fill="#BE1E2D" stroke="#BE1E2D" stroke-width="0.12"/>
<path d="M66.3612 44.9486C66.6215 44.9486 67.1621 44.8484 67.6526 44.6983C67.6726 44.7984 67.6926 44.9385 67.7127 45.0487C67.1621 45.2689 66.4914 45.389 66.171 45.389C65.8507 45.389 65.4102 45.1688 65.27 44.7183C65.26 44.6582 65.25 44.6082 65.25 44.5481C65.25 44.1977 65.6104 42.7061 65.6805 42.3958C65.7706 41.9754 65.9007 41.4448 65.9808 41.0944H65.1199C65.1399 40.9743 65.1599 40.8341 65.2 40.714C65.4703 40.694 65.7506 40.684 66.0108 40.674C66.0409 40.674 66.0909 40.6439 66.1009 40.5939C66.191 40.2835 66.2911 39.8731 66.3912 39.5427C66.5614 39.4426 66.7917 39.3926 66.8618 39.3926C66.8818 39.3926 66.8918 39.4026 66.8918 39.4226C66.8117 39.783 66.7116 40.1934 66.6115 40.674C67.1821 40.674 67.7827 40.674 68.3433 40.6639C68.3333 40.8341 68.3033 40.9743 68.2633 41.1044C67.7627 41.1044 67.1721 41.1144 66.5114 41.1044C66.4313 41.4548 66.2511 42.1956 66.171 42.576C66.0609 43.0765 65.8206 44.1477 65.8206 44.458C65.8206 44.8184 66.0309 44.9586 66.3612 44.9586V44.9486Z" fill="#BE1E2D" stroke="#BE1E2D" stroke-width="0.12"/>
<path d="M71.3668 41.2049C71.3668 41.1448 71.3467 41.1048 71.2967 41.0848C71.1765 40.9947 70.9663 40.9246 70.676 40.9246C70.4958 40.9246 70.2255 40.9546 70.0053 41.0748C69.7851 41.1949 69.5348 41.4552 69.5348 41.8356C69.5348 42.3061 69.785 42.4462 70.2956 42.6765C71.0364 43.0168 71.4669 43.3272 71.4669 43.9579C71.4669 44.4484 71.2066 44.8889 70.7261 45.1591C70.3957 45.3494 70.0253 45.4094 69.4247 45.4094C69.0242 45.4094 68.5838 45.3093 68.4336 45.2192C68.4536 44.7887 68.4736 44.3583 68.5037 43.9178C68.6238 43.8978 68.784 43.8978 68.8941 43.8978L68.9642 44.7487C68.9642 44.8088 68.9942 44.8488 69.0443 44.8688C69.1744 44.9589 69.4347 45.019 69.745 45.019C70.0153 45.019 70.3356 44.9589 70.5459 44.8388C70.8061 44.6586 70.9363 44.4384 70.9363 44.068C70.9363 43.5374 70.5859 43.3672 70.0954 43.137C69.4647 42.8567 69.0142 42.6064 69.0142 41.9257C69.0142 41.3951 69.4147 40.9646 69.8051 40.7744C70.1555 40.5942 70.5359 40.5542 70.9363 40.5542C71.3067 40.5542 71.7271 40.6643 71.9174 40.7945C71.8873 41.1949 71.8373 41.6153 71.7972 41.9957C71.6871 42.0058 71.5369 42.0058 71.4168 42.0058L71.3868 41.2349L71.3668 41.2049Z" fill="#BE1E2D" stroke="#BE1E2D" stroke-width="0.12"/>
<path d="M74.9707 41.1648C74.9607 41.0447 74.9507 40.9246 74.9507 40.8144C75.8216 40.6843 76.2621 40.5341 76.3322 40.5341C76.3922 40.5341 76.5224 40.6943 76.5724 40.7744C76.2921 41.9056 75.7115 44.3182 75.5613 44.9189C75.5513 44.9489 75.5613 44.9889 75.5914 44.9889C75.7616 44.9889 76.0819 44.9088 76.4823 44.7987C76.5224 44.9088 76.5624 45.019 76.5724 45.1491C76.1219 45.3093 75.6314 45.4094 75.3611 45.4094C75.3211 45.4094 75.0708 45.2492 75.0007 45.099C75.271 43.9879 75.6414 42.4862 75.9518 41.1048L74.9707 41.1848V41.1648ZM76.9328 38.9324C76.9328 39.1226 76.7126 39.4029 76.4623 39.4029C76.212 39.4029 75.9818 39.1827 75.9818 38.9424C75.9818 38.7422 76.172 38.4619 76.5124 38.4619C76.7927 38.4619 76.9428 38.7422 76.9428 38.9324H76.9328Z" fill="#BE1E2D" stroke="#BE1E2D" stroke-width="0.12"/>
<path d="M77.7134 41.1844C77.7034 41.0643 77.6934 40.9441 77.6934 40.834C78.4041 40.7039 78.9147 40.5337 78.9848 40.5337C79.0248 40.5337 79.155 40.6238 79.205 40.7139C79.1149 41.0442 78.9948 41.5248 78.8546 42.0153L78.9247 42.0353C79.8457 40.9842 80.7767 40.5437 81.2973 40.5337C81.5776 40.5938 81.8378 40.794 81.978 41.0843C82.018 41.1944 82.0381 41.3045 82.0381 41.4146C82.0381 41.9452 81.6176 43.4368 81.087 44.8984C81.077 44.9384 81.087 44.9785 81.1271 44.9785C81.2772 44.9785 81.5976 44.8984 81.978 44.7783C82.008 44.8984 82.038 45.0285 82.0581 45.1487C81.6276 45.2988 81.097 45.4089 80.7667 45.4089C80.7266 45.4089 80.5565 45.2788 80.5164 45.0986C80.7066 44.548 81.087 43.3167 81.2572 42.686C81.3473 42.3356 81.4574 41.8651 81.4574 41.5448C81.4574 41.2945 81.3573 41.0843 81.077 41.0843C80.3262 41.0843 78.8947 42.3256 78.7345 42.9663C78.6244 43.3567 78.264 44.8684 78.1439 45.3088H77.6133C77.8636 44.2877 78.3241 42.4658 78.6244 41.1143L77.7134 41.2044V41.1844Z" fill="#BE1E2D" stroke="#BE1E2D" stroke-width="0.12"/>
<path d="M87.414 44.8688C87.414 44.8688 87.4741 44.8488 87.4741 44.8388L88.5452 38.4319C87.454 38.4319 87.1837 38.4319 86.8033 38.462C86.5831 38.482 86.523 38.542 86.473 38.6722L86.1426 39.7533C86.0125 39.7533 85.8523 39.7433 85.7222 39.7233C85.8423 39.1527 85.9724 38.5621 86.0926 37.9915C86.3629 37.9915 86.7032 38.0015 87.1337 38.0015H90.7476C91.2181 37.9915 91.4183 37.9915 91.6686 37.9814C91.5985 38.5521 91.5184 39.1427 91.4483 39.7233C91.3282 39.7333 91.178 39.7433 91.0479 39.7433L91.0679 38.6622C91.0679 38.532 91.0479 38.462 90.8176 38.4519C90.3872 38.4319 90.197 38.4319 89.0958 38.4319L87.9846 44.8789L89.1458 44.9089C89.1258 45.029 89.0858 45.1792 89.0558 45.3093C88.6653 45.3093 88.1548 45.2993 87.7243 45.2993C87.2939 45.2993 86.8234 45.3093 86.4029 45.3093C86.4229 45.1792 86.4429 45.029 86.473 44.9089L87.414 44.8789V44.8688Z" fill="#BE1E2D" stroke="#BE1E2D" stroke-width="0.12"/>
<path d="M93.7508 44.7582C93.3503 45.1587 92.8898 45.4089 92.2291 45.4089C91.7586 45.4089 91.4283 45.2187 91.2381 44.9785C91.0579 44.7582 90.9077 44.3878 90.9077 43.9574C90.9077 42.8762 91.3682 41.8151 92.069 41.1443C92.5695 40.6638 93.07 40.5337 93.5105 40.5337C93.8709 40.5337 94.1812 40.6538 94.4015 40.8741C94.6617 41.1343 94.8419 41.5448 94.8419 42.1054C94.8419 42.9763 94.5316 43.9774 93.7608 44.7582H93.7508ZM93.5105 44.4179C93.951 43.9173 94.2413 42.9963 94.2413 42.2856C94.2413 41.8051 94.1812 41.5548 94.0411 41.3346C93.9209 41.1243 93.7307 40.9541 93.3403 40.9541C92.8998 40.9541 92.4894 41.2044 92.139 41.6749C91.8587 42.0653 91.4883 42.8962 91.4883 43.8172C91.4883 44.1976 91.5584 44.4579 91.6986 44.6781C91.8487 44.9184 92.099 45.0085 92.3793 45.0085C92.8298 45.0085 93.2102 44.7582 93.5005 44.4279L93.5105 44.4179Z" fill="#BE1E2D" stroke="#BE1E2D" stroke-width="0.12"/>
<path d="M98.7061 43.8371C97.8652 44.8682 96.9643 45.4188 96.4737 45.4288C96.1934 45.3987 95.8631 45.1885 95.6829 44.8882C95.6228 44.7781 95.5928 44.6179 95.5928 44.4677C95.5928 43.9372 95.7529 43.2865 95.9632 42.7159C96.3336 41.7548 97.0944 40.5235 98.1956 40.5235C98.6561 40.5235 99.0565 40.7237 99.3368 40.954H99.3969C99.6071 40.083 99.8674 38.9718 100.078 38.0208L99.0665 38.0809C99.0465 37.9607 99.0365 37.8406 99.0365 37.7305C99.8073 37.6204 100.428 37.4302 100.498 37.4302C100.568 37.4302 100.658 37.5203 100.718 37.6104C100.508 38.5113 99.1566 44.0973 98.9764 44.9082C98.9764 44.9383 98.9964 44.9683 99.0165 44.9683C99.1166 44.9683 99.3969 44.9082 99.7573 44.7781C99.7873 44.8882 99.8273 44.9983 99.8373 45.1184C99.3668 45.3086 98.9764 45.3887 98.6961 45.3887C98.6661 45.3887 98.4559 45.2686 98.4158 45.1385C98.4559 44.9483 98.596 44.4978 98.7662 43.8671L98.6961 43.8371H98.7061ZM98.9464 42.876C99.0165 42.5857 99.1967 41.8249 99.2567 41.5046C98.9864 41.1642 98.5259 41.014 98.1355 41.014C97.4147 41.014 96.8541 41.7849 96.5538 42.5757C96.3336 43.1864 96.1634 43.8771 96.1634 44.3676C96.1634 44.8181 96.4136 44.9383 96.6339 44.9383C97.3346 44.9383 98.7762 43.4767 98.9464 42.876Z" fill="#BE1E2D" stroke="#BE1E2D" stroke-width="0.12"/>
<path d="M103.752 43.8778C102.68 45.0891 101.94 45.4294 101.599 45.4294C101.359 45.3894 101.039 45.1792 100.878 44.8889C100.808 44.7787 100.788 44.6386 100.788 44.4884C100.788 44.048 100.918 43.3572 101.149 42.7366C101.499 41.8056 102.27 40.5342 103.291 40.5342C103.711 40.5342 104.082 40.7544 104.372 41.1048H104.442L104.683 40.5142C104.833 40.5442 104.963 40.5942 105.093 40.6343C104.803 41.6354 104.282 43.6776 104.022 44.9089C104.012 44.9389 104.032 44.9689 104.062 44.9689C104.152 44.9689 104.482 44.8889 104.883 44.7587C104.913 44.8688 104.953 44.979 104.973 45.1091C104.512 45.2893 103.992 45.3894 103.721 45.3894C103.691 45.3894 103.511 45.2693 103.451 45.1391C103.511 44.9389 103.651 44.4284 103.802 43.9078L103.742 43.8878L103.752 43.8778ZM101.779 42.4763C101.519 43.0969 101.349 43.8277 101.349 44.4083C101.349 44.7687 101.539 44.9389 101.739 44.9389C102.33 44.9389 103.701 43.6175 103.932 43.0068C104.012 42.7966 104.212 41.9557 104.282 41.6454C104.012 41.2149 103.621 41.0047 103.201 41.0047C102.58 41.0047 102.07 41.7955 101.779 42.4763Z" fill="#BE1E2D" stroke="#BE1E2D" stroke-width="0.12"/>
<path d="M105.634 41.2747C105.614 41.1546 105.594 41.0345 105.574 40.9244C106.294 40.7141 106.715 40.5339 106.785 40.5339C106.855 40.5339 106.965 40.634 107.045 40.7241C107.175 42.2758 107.335 43.9776 107.476 45.239H107.516C107.916 44.6484 108.196 44.1678 108.437 43.6873C108.807 42.9465 109.338 41.6652 109.338 41.1146C109.338 41.0445 109.298 41.0145 109.237 41.0245L108.507 41.1046C108.497 40.9944 108.487 40.8843 108.477 40.7642C109.037 40.6641 109.558 40.5239 109.638 40.5239C109.698 40.5239 109.928 40.7742 109.928 40.8243C109.928 41.5951 109.278 43.0266 108.827 43.8675C108.256 44.9587 107.386 46.14 106.485 47.111C105.964 47.6716 105.503 48.002 105.413 48.002C105.233 48.002 104.963 47.7617 104.943 47.6115C105.433 47.3513 105.794 47.081 106.114 46.8007C106.414 46.5304 106.785 46.17 107.055 45.7696C106.945 44.8886 106.675 42.456 106.555 41.0845L105.644 41.2647L105.634 41.2747Z" fill="#BE1E2D" stroke="#BE1E2D" stroke-width="0.12"/>
<path d="M111.31 39.6929C111.24 39.6028 111.159 39.5026 111.099 39.4125C111.53 39.1423 111.81 38.8319 111.81 38.4916C111.81 38.2713 111.66 38.1812 111.43 38.1212C111.42 37.7508 111.68 37.4604 111.97 37.4604C112.221 37.4604 112.461 37.7307 112.461 38.1212C112.461 38.7919 111.91 39.3725 111.32 39.6929H111.31Z" fill="#BE1E2D" stroke="#BE1E2D" stroke-width="0.12"/>
<path d="M115.134 41.2049C115.134 41.1448 115.114 41.1048 115.064 41.0848C114.944 40.9947 114.733 40.9246 114.443 40.9246C114.263 40.9246 113.993 40.9546 113.772 41.0748C113.552 41.1949 113.302 41.4552 113.302 41.8356C113.302 42.3061 113.552 42.4462 114.063 42.6765C114.803 43.0168 115.234 43.3272 115.234 43.9579C115.234 44.4484 114.974 44.8889 114.493 45.1591C114.163 45.3494 113.792 45.4094 113.192 45.4094C112.791 45.4094 112.351 45.3093 112.201 45.2192C112.221 44.7887 112.241 44.3583 112.271 43.9178C112.391 43.8978 112.551 43.8978 112.661 43.8978L112.731 44.7487C112.731 44.8088 112.761 44.8488 112.811 44.8688C112.941 44.9589 113.202 45.019 113.512 45.019C113.782 45.019 114.103 44.9589 114.313 44.8388C114.573 44.6586 114.703 44.4384 114.703 44.068C114.703 43.5374 114.353 43.3672 113.862 43.137C113.232 42.8567 112.781 42.6064 112.781 41.9257C112.781 41.3951 113.182 40.9646 113.572 40.7744C113.923 40.5942 114.303 40.5542 114.703 40.5542C115.074 40.5542 115.494 40.6643 115.684 40.7945C115.654 41.1949 115.604 41.6153 115.564 41.9957C115.454 42.0058 115.304 42.0058 115.184 42.0058L115.154 41.2349L115.134 41.2049Z" fill="#BE1E2D" stroke="#BE1E2D" stroke-width="0.12"/>
<path d="M119.419 38.4019C119.439 38.2718 119.459 38.1316 119.489 38.0015H121.13C121.281 38.6321 122.041 42.1659 122.582 44.4284H122.642C123.883 42.3061 125.785 38.7323 126.206 38.0015H127.858C127.848 38.1316 127.818 38.2718 127.788 38.4019L127.037 38.4219C127.037 38.4219 126.997 38.4419 126.997 38.492C126.666 40.4141 126.286 42.8267 125.956 44.8688L126.797 44.8989C126.776 45.019 126.756 45.1692 126.726 45.2893H125.535C125.145 45.2893 124.714 45.2993 124.394 45.2993C124.414 45.1692 124.434 45.029 124.464 44.8989L125.355 44.8688C125.355 44.8688 125.435 44.8488 125.435 44.8088C125.765 42.9468 126.146 40.5542 126.446 38.6722H126.366C124.584 41.9457 123.443 43.9679 122.692 45.1692C122.632 45.1792 122.442 45.1792 122.322 45.1792C121.991 44.048 121.531 42.1159 120.79 38.6422H120.7C120.37 40.5842 119.959 42.8967 119.619 44.8588L120.66 44.8889C120.65 45.009 120.63 45.1592 120.59 45.2793H119.258C118.888 45.2793 118.538 45.2893 118.247 45.2893C118.267 45.1592 118.287 45.019 118.317 44.8889L119.078 44.8588C119.078 44.8588 119.148 44.8388 119.158 44.7988C119.489 42.8667 119.919 40.344 120.249 38.4119L119.439 38.3919L119.419 38.4019Z" fill="#BE1E2D" stroke="#BE1E2D" stroke-width="0.12"/>
<path d="M130.781 43.8778C129.709 45.0891 128.969 45.4294 128.628 45.4294C128.388 45.3894 128.068 45.1792 127.907 44.8889C127.837 44.7787 127.817 44.6386 127.817 44.4884C127.817 44.048 127.948 43.3572 128.178 42.7366C128.528 41.8056 129.299 40.5342 130.32 40.5342C130.741 40.5342 131.111 40.7544 131.401 41.1048H131.471L131.712 40.5142C131.862 40.5442 131.992 40.5942 132.122 40.6343C131.832 41.6354 131.311 43.6776 131.051 44.9089C131.041 44.9389 131.061 44.9689 131.091 44.9689C131.181 44.9689 131.511 44.8889 131.912 44.7587C131.942 44.8688 131.982 44.979 132.002 45.1091C131.541 45.2893 131.021 45.3894 130.751 45.3894C130.72 45.3894 130.54 45.2693 130.48 45.1391C130.54 44.9389 130.68 44.4284 130.831 43.9078L130.771 43.8878L130.781 43.8778ZM128.808 42.4763C128.548 43.0969 128.378 43.8277 128.378 44.4083C128.378 44.7687 128.568 44.9389 128.768 44.9389C129.359 44.9389 130.731 43.6175 130.961 43.0068C131.041 42.7966 131.241 41.9557 131.311 41.6454C131.041 41.2149 130.65 41.0047 130.23 41.0047C129.609 41.0047 129.099 41.7955 128.808 42.4763Z" fill="#BE1E2D" stroke="#BE1E2D" stroke-width="0.12"/>
<path d="M133.083 41.1644C133.063 41.0442 133.063 40.9141 133.053 40.804C133.674 40.7039 134.264 40.5337 134.314 40.5337C134.384 40.5337 134.505 40.6538 134.535 40.7339C134.454 41.0743 134.354 41.4847 134.184 42.1755L134.254 42.2055C134.895 41.2545 135.646 40.5337 136.046 40.5337C136.256 40.5337 136.437 40.6138 136.547 40.6839C136.547 40.8841 136.327 41.2545 136.236 41.2945C136.156 41.2645 135.966 41.2044 135.816 41.2044C135.375 41.2044 134.214 42.5058 133.944 43.5169C133.864 43.8473 133.634 44.8684 133.523 45.2988H133.003C133.223 44.3778 133.674 42.3957 133.964 41.0543L133.063 41.1644H133.083Z" fill="#BE1E2D" stroke="#BE1E2D" stroke-width="0.12"/>
<path d="M137.728 42.9461C139.089 41.3444 140.211 40.5335 140.691 40.5335C140.791 40.5335 140.961 40.7838 140.991 40.994C140.151 41.1241 139.42 41.7448 138.669 42.4856V42.5156C139.129 42.7759 139.41 43.3766 139.57 43.8271C139.73 44.2675 139.85 44.5779 139.99 44.8181C140.03 44.8982 140.11 44.9182 140.181 44.9082C140.371 44.9082 140.611 44.8381 140.911 44.738C140.941 44.8582 140.971 44.9883 140.981 45.1084C140.531 45.2686 140.02 45.3487 139.68 45.3487C139.48 45.0384 139.28 44.5378 139.109 44.0773C138.819 43.3265 138.609 42.886 138.359 42.886C138.288 42.886 138.228 42.9261 138.168 42.9761C137.968 43.1663 137.788 43.3565 137.548 43.6168C137.438 44.0573 137.247 44.8782 137.127 45.2886H136.597C136.857 44.2675 137.998 39.5024 138.359 38.0508L137.357 38.1309C137.347 38.0108 137.337 37.8807 137.327 37.7806C137.998 37.6604 138.729 37.4302 138.779 37.4302C138.829 37.4302 138.949 37.5203 139.029 37.6104C138.789 38.5714 138.138 41.1342 137.668 42.9261L137.738 42.9461H137.728Z" fill="#BE1E2D" stroke="#BE1E2D" stroke-width="0.12"/>
<path d="M142.453 41.4246C142.974 40.804 143.454 40.5337 144.025 40.5337C144.736 40.5337 145.126 41.1143 145.136 41.6649C145.076 41.9953 144.866 42.4558 144.545 42.6259C143.905 42.9563 143.134 43.0464 142.183 43.0464C142.083 43.3567 142.003 43.8072 142.003 44.0575C142.003 44.6281 142.283 44.9484 142.804 44.9484C143.264 44.9484 143.975 44.6481 144.565 44.2977C144.626 44.3978 144.676 44.508 144.726 44.6281C144.135 45.0185 143.324 45.4189 142.653 45.4189C142.113 45.4189 141.442 45.0285 141.442 44.1976C141.442 43.5569 141.732 42.3156 142.463 41.4347L142.453 41.4246ZM142.894 41.5348C142.703 41.785 142.473 42.1254 142.303 42.666C142.964 42.676 143.624 42.5759 144.055 42.3657C144.335 42.2355 144.555 42.0353 144.555 41.715C144.555 41.3346 144.355 40.9842 143.885 40.9842C143.474 40.9842 143.144 41.2244 142.894 41.5348Z" fill="#BE1E2D" stroke="#BE1E2D" stroke-width="0.12"/>
<path d="M147.258 44.9486C147.519 44.9486 148.059 44.8484 148.55 44.6983C148.57 44.7984 148.59 44.9385 148.61 45.0487C148.059 45.2689 147.389 45.389 147.068 45.389C146.748 45.389 146.307 45.1688 146.167 44.7183C146.157 44.6582 146.147 44.6082 146.147 44.5481C146.147 44.1977 146.508 42.7061 146.578 42.3958C146.668 41.9754 146.798 41.4448 146.878 41.0944H146.017C146.037 40.9743 146.057 40.8341 146.097 40.714C146.367 40.694 146.648 40.684 146.908 40.674C146.938 40.674 146.988 40.6439 146.998 40.5939C147.088 40.2835 147.188 39.8731 147.288 39.5427C147.459 39.4426 147.689 39.3926 147.759 39.3926C147.779 39.3926 147.789 39.4026 147.789 39.4226C147.709 39.783 147.609 40.1934 147.509 40.674C148.079 40.674 148.68 40.674 149.241 40.6639C149.231 40.8341 149.201 40.9743 149.16 41.1044C148.66 41.1044 148.069 41.1144 147.409 41.1044C147.328 41.4548 147.148 42.1956 147.068 42.576C146.958 43.0765 146.718 44.1477 146.718 44.458C146.718 44.8184 146.928 44.9586 147.258 44.9586V44.9486Z" fill="#BE1E2D" stroke="#BE1E2D" stroke-width="0.12"/>
</g>
</g>
</g>
</g>
<defs>
<linearGradient id="paint0_linear_100_280" x1="4.19234" y1="359.958" x2="5.95423" y2="359.958" gradientUnits="userSpaceOnUse">
<stop stop-color="white"/>
<stop offset="1" stop-color="#6D6E71"/>
</linearGradient>
<linearGradient id="paint1_linear_100_280" x1="182.987" y1="364.604" x2="181.225" y2="364.604" gradientUnits="userSpaceOnUse">
<stop stop-color="white"/>
<stop offset="1" stop-color="#6D6E71"/>
</linearGradient>
</defs>
</svg>
